%TF.GenerationSoftware,KiCad,Pcbnew,9.0.7-9.0.7~ubuntu24.04.1*%
%TF.CreationDate,2026-04-13T16:00:46+05:30*%
%TF.ProjectId,Ow_main_pcb,4f775f6d-6169-46e5-9f70-63622e6b6963,rev?*%
%TF.SameCoordinates,Original*%
%TF.FileFunction,Legend,Top*%
%TF.FilePolarity,Positive*%
%FSLAX46Y46*%
G04 Gerber Fmt 4.6, Leading zero omitted, Abs format (unit mm)*
G04 Created by KiCad (PCBNEW 9.0.7-9.0.7~ubuntu24.04.1) date 2026-04-13 16:00:46*
%MOMM*%
%LPD*%
G01*
G04 APERTURE LIST*
%ADD10C,0.150000*%
%ADD11C,0.100000*%
%ADD12C,0.180000*%
%ADD13C,0.120000*%
G04 APERTURE END LIST*
D10*
X268578095Y-190414819D02*
X268578095Y-189414819D01*
X268578095Y-189891009D02*
X269149523Y-189891009D01*
X269149523Y-190414819D02*
X269149523Y-189414819D01*
X269530476Y-189414819D02*
X270149523Y-189414819D01*
X270149523Y-189414819D02*
X269816190Y-189795771D01*
X269816190Y-189795771D02*
X269959047Y-189795771D01*
X269959047Y-189795771D02*
X270054285Y-189843390D01*
X270054285Y-189843390D02*
X270101904Y-189891009D01*
X270101904Y-189891009D02*
X270149523Y-189986247D01*
X270149523Y-189986247D02*
X270149523Y-190224342D01*
X270149523Y-190224342D02*
X270101904Y-190319580D01*
X270101904Y-190319580D02*
X270054285Y-190367200D01*
X270054285Y-190367200D02*
X269959047Y-190414819D01*
X269959047Y-190414819D02*
X269673333Y-190414819D01*
X269673333Y-190414819D02*
X269578095Y-190367200D01*
X269578095Y-190367200D02*
X269530476Y-190319580D01*
D11*
X271762580Y-145188095D02*
X270953057Y-145188095D01*
X270953057Y-145188095D02*
X270857819Y-145235714D01*
X270857819Y-145235714D02*
X270810200Y-145283333D01*
X270810200Y-145283333D02*
X270762580Y-145378571D01*
X270762580Y-145378571D02*
X270762580Y-145569047D01*
X270762580Y-145569047D02*
X270810200Y-145664285D01*
X270810200Y-145664285D02*
X270857819Y-145711904D01*
X270857819Y-145711904D02*
X270953057Y-145759523D01*
X270953057Y-145759523D02*
X271762580Y-145759523D01*
X271762580Y-146140476D02*
X271762580Y-146807142D01*
X271762580Y-146807142D02*
X270762580Y-146378571D01*
D10*
X73578095Y-95414819D02*
X73578095Y-94414819D01*
X73578095Y-94891009D02*
X74149523Y-94891009D01*
X74149523Y-95414819D02*
X74149523Y-94414819D01*
X75149523Y-95414819D02*
X74578095Y-95414819D01*
X74863809Y-95414819D02*
X74863809Y-94414819D01*
X74863809Y-94414819D02*
X74768571Y-94557676D01*
X74768571Y-94557676D02*
X74673333Y-94652914D01*
X74673333Y-94652914D02*
X74578095Y-94700533D01*
X128284819Y-159678094D02*
X127284819Y-159678094D01*
X127284819Y-159678094D02*
X127284819Y-159439999D01*
X127284819Y-159439999D02*
X127332438Y-159297142D01*
X127332438Y-159297142D02*
X127427676Y-159201904D01*
X127427676Y-159201904D02*
X127522914Y-159154285D01*
X127522914Y-159154285D02*
X127713390Y-159106666D01*
X127713390Y-159106666D02*
X127856247Y-159106666D01*
X127856247Y-159106666D02*
X128046723Y-159154285D01*
X128046723Y-159154285D02*
X128141961Y-159201904D01*
X128141961Y-159201904D02*
X128237200Y-159297142D01*
X128237200Y-159297142D02*
X128284819Y-159439999D01*
X128284819Y-159439999D02*
X128284819Y-159678094D01*
X128284819Y-158154285D02*
X128284819Y-158725713D01*
X128284819Y-158439999D02*
X127284819Y-158439999D01*
X127284819Y-158439999D02*
X127427676Y-158535237D01*
X127427676Y-158535237D02*
X127522914Y-158630475D01*
X127522914Y-158630475D02*
X127570533Y-158725713D01*
X73578095Y-190414819D02*
X73578095Y-189414819D01*
X73578095Y-189891009D02*
X74149523Y-189891009D01*
X74149523Y-190414819D02*
X74149523Y-189414819D01*
X75054285Y-189748152D02*
X75054285Y-190414819D01*
X74816190Y-189367200D02*
X74578095Y-190081485D01*
X74578095Y-190081485D02*
X75197142Y-190081485D01*
D11*
X184618095Y-149257419D02*
X184618095Y-150066942D01*
X184618095Y-150066942D02*
X184665714Y-150162180D01*
X184665714Y-150162180D02*
X184713333Y-150209800D01*
X184713333Y-150209800D02*
X184808571Y-150257419D01*
X184808571Y-150257419D02*
X184999047Y-150257419D01*
X184999047Y-150257419D02*
X185094285Y-150209800D01*
X185094285Y-150209800D02*
X185141904Y-150162180D01*
X185141904Y-150162180D02*
X185189523Y-150066942D01*
X185189523Y-150066942D02*
X185189523Y-149257419D01*
X185570476Y-149257419D02*
X186189523Y-149257419D01*
X186189523Y-149257419D02*
X185856190Y-149638371D01*
X185856190Y-149638371D02*
X185999047Y-149638371D01*
X185999047Y-149638371D02*
X186094285Y-149685990D01*
X186094285Y-149685990D02*
X186141904Y-149733609D01*
X186141904Y-149733609D02*
X186189523Y-149828847D01*
X186189523Y-149828847D02*
X186189523Y-150066942D01*
X186189523Y-150066942D02*
X186141904Y-150162180D01*
X186141904Y-150162180D02*
X186094285Y-150209800D01*
X186094285Y-150209800D02*
X185999047Y-150257419D01*
X185999047Y-150257419D02*
X185713333Y-150257419D01*
X185713333Y-150257419D02*
X185618095Y-150209800D01*
X185618095Y-150209800D02*
X185570476Y-150162180D01*
D10*
X127924819Y-186241904D02*
X126924819Y-186241904D01*
X127924819Y-185670476D02*
X127353390Y-186099047D01*
X126924819Y-185670476D02*
X127496247Y-186241904D01*
X268578095Y-95414819D02*
X268578095Y-94414819D01*
X268578095Y-94891009D02*
X269149523Y-94891009D01*
X269149523Y-95414819D02*
X269149523Y-94414819D01*
X269578095Y-94510057D02*
X269625714Y-94462438D01*
X269625714Y-94462438D02*
X269720952Y-94414819D01*
X269720952Y-94414819D02*
X269959047Y-94414819D01*
X269959047Y-94414819D02*
X270054285Y-94462438D01*
X270054285Y-94462438D02*
X270101904Y-94510057D01*
X270101904Y-94510057D02*
X270149523Y-94605295D01*
X270149523Y-94605295D02*
X270149523Y-94700533D01*
X270149523Y-94700533D02*
X270101904Y-94843390D01*
X270101904Y-94843390D02*
X269530476Y-95414819D01*
X269530476Y-95414819D02*
X270149523Y-95414819D01*
D11*
X237997419Y-122181904D02*
X238806942Y-122181904D01*
X238806942Y-122181904D02*
X238902180Y-122134285D01*
X238902180Y-122134285D02*
X238949800Y-122086666D01*
X238949800Y-122086666D02*
X238997419Y-121991428D01*
X238997419Y-121991428D02*
X238997419Y-121800952D01*
X238997419Y-121800952D02*
X238949800Y-121705714D01*
X238949800Y-121705714D02*
X238902180Y-121658095D01*
X238902180Y-121658095D02*
X238806942Y-121610476D01*
X238806942Y-121610476D02*
X237997419Y-121610476D01*
X238997419Y-120610476D02*
X238997419Y-121181904D01*
X238997419Y-120896190D02*
X237997419Y-120896190D01*
X237997419Y-120896190D02*
X238140276Y-120991428D01*
X238140276Y-120991428D02*
X238235514Y-121086666D01*
X238235514Y-121086666D02*
X238283133Y-121181904D01*
D12*
X136147348Y-121803809D02*
X135216395Y-121803809D01*
X135216395Y-121803809D02*
X135106871Y-121858571D01*
X135106871Y-121858571D02*
X135052110Y-121913333D01*
X135052110Y-121913333D02*
X134997348Y-122022857D01*
X134997348Y-122022857D02*
X134997348Y-122241904D01*
X134997348Y-122241904D02*
X135052110Y-122351428D01*
X135052110Y-122351428D02*
X135106871Y-122406190D01*
X135106871Y-122406190D02*
X135216395Y-122460952D01*
X135216395Y-122460952D02*
X136147348Y-122460952D01*
X136037824Y-122953809D02*
X136092586Y-123008571D01*
X136092586Y-123008571D02*
X136147348Y-123118095D01*
X136147348Y-123118095D02*
X136147348Y-123391904D01*
X136147348Y-123391904D02*
X136092586Y-123501428D01*
X136092586Y-123501428D02*
X136037824Y-123556190D01*
X136037824Y-123556190D02*
X135928300Y-123610952D01*
X135928300Y-123610952D02*
X135818776Y-123610952D01*
X135818776Y-123610952D02*
X135654490Y-123556190D01*
X135654490Y-123556190D02*
X134997348Y-122899047D01*
X134997348Y-122899047D02*
X134997348Y-123610952D01*
X133667348Y-103842230D02*
X134817348Y-103842230D01*
X134817348Y-103842230D02*
X134817348Y-104116040D01*
X134817348Y-104116040D02*
X134762586Y-104280325D01*
X134762586Y-104280325D02*
X134653062Y-104389849D01*
X134653062Y-104389849D02*
X134543538Y-104444611D01*
X134543538Y-104444611D02*
X134324490Y-104499373D01*
X134324490Y-104499373D02*
X134160205Y-104499373D01*
X134160205Y-104499373D02*
X133941157Y-104444611D01*
X133941157Y-104444611D02*
X133831633Y-104389849D01*
X133831633Y-104389849D02*
X133722110Y-104280325D01*
X133722110Y-104280325D02*
X133667348Y-104116040D01*
X133667348Y-104116040D02*
X133667348Y-103842230D01*
X134269729Y-104992230D02*
X134269729Y-105375563D01*
X133667348Y-105539849D02*
X133667348Y-104992230D01*
X133667348Y-104992230D02*
X134817348Y-104992230D01*
X134817348Y-104992230D02*
X134817348Y-105539849D01*
X136207348Y-104499373D02*
X136754967Y-104116040D01*
X136207348Y-103842230D02*
X137357348Y-103842230D01*
X137357348Y-103842230D02*
X137357348Y-104280325D01*
X137357348Y-104280325D02*
X137302586Y-104389849D01*
X137302586Y-104389849D02*
X137247824Y-104444611D01*
X137247824Y-104444611D02*
X137138300Y-104499373D01*
X137138300Y-104499373D02*
X136974014Y-104499373D01*
X136974014Y-104499373D02*
X136864490Y-104444611D01*
X136864490Y-104444611D02*
X136809729Y-104389849D01*
X136809729Y-104389849D02*
X136754967Y-104280325D01*
X136754967Y-104280325D02*
X136754967Y-103842230D01*
X136809729Y-104992230D02*
X136809729Y-105375563D01*
X136207348Y-105539849D02*
X136207348Y-104992230D01*
X136207348Y-104992230D02*
X137357348Y-104992230D01*
X137357348Y-104992230D02*
X137357348Y-105539849D01*
X139897348Y-138255388D02*
X138747348Y-138638722D01*
X138747348Y-138638722D02*
X139897348Y-139022055D01*
X138856871Y-140062531D02*
X138802110Y-140007769D01*
X138802110Y-140007769D02*
X138747348Y-139843483D01*
X138747348Y-139843483D02*
X138747348Y-139733959D01*
X138747348Y-139733959D02*
X138802110Y-139569674D01*
X138802110Y-139569674D02*
X138911633Y-139460150D01*
X138911633Y-139460150D02*
X139021157Y-139405388D01*
X139021157Y-139405388D02*
X139240205Y-139350626D01*
X139240205Y-139350626D02*
X139404490Y-139350626D01*
X139404490Y-139350626D02*
X139623538Y-139405388D01*
X139623538Y-139405388D02*
X139733062Y-139460150D01*
X139733062Y-139460150D02*
X139842586Y-139569674D01*
X139842586Y-139569674D02*
X139897348Y-139733959D01*
X139897348Y-139733959D02*
X139897348Y-139843483D01*
X139897348Y-139843483D02*
X139842586Y-140007769D01*
X139842586Y-140007769D02*
X139787824Y-140062531D01*
X138856871Y-141212531D02*
X138802110Y-141157769D01*
X138802110Y-141157769D02*
X138747348Y-140993483D01*
X138747348Y-140993483D02*
X138747348Y-140883959D01*
X138747348Y-140883959D02*
X138802110Y-140719674D01*
X138802110Y-140719674D02*
X138911633Y-140610150D01*
X138911633Y-140610150D02*
X139021157Y-140555388D01*
X139021157Y-140555388D02*
X139240205Y-140500626D01*
X139240205Y-140500626D02*
X139404490Y-140500626D01*
X139404490Y-140500626D02*
X139623538Y-140555388D01*
X139623538Y-140555388D02*
X139733062Y-140610150D01*
X139733062Y-140610150D02*
X139842586Y-140719674D01*
X139842586Y-140719674D02*
X139897348Y-140883959D01*
X139897348Y-140883959D02*
X139897348Y-140993483D01*
X139897348Y-140993483D02*
X139842586Y-141157769D01*
X139842586Y-141157769D02*
X139787824Y-141212531D01*
X133995919Y-140664912D02*
X133995919Y-141212531D01*
X133667348Y-140555388D02*
X134817348Y-140938722D01*
X134817348Y-140938722D02*
X133667348Y-141322055D01*
X132222586Y-139057007D02*
X132277348Y-138947483D01*
X132277348Y-138947483D02*
X132277348Y-138783197D01*
X132277348Y-138783197D02*
X132222586Y-138618912D01*
X132222586Y-138618912D02*
X132113062Y-138509388D01*
X132113062Y-138509388D02*
X132003538Y-138454626D01*
X132003538Y-138454626D02*
X131784490Y-138399864D01*
X131784490Y-138399864D02*
X131620205Y-138399864D01*
X131620205Y-138399864D02*
X131401157Y-138454626D01*
X131401157Y-138454626D02*
X131291633Y-138509388D01*
X131291633Y-138509388D02*
X131182110Y-138618912D01*
X131182110Y-138618912D02*
X131127348Y-138783197D01*
X131127348Y-138783197D02*
X131127348Y-138892721D01*
X131127348Y-138892721D02*
X131182110Y-139057007D01*
X131182110Y-139057007D02*
X131236871Y-139111769D01*
X131236871Y-139111769D02*
X131620205Y-139111769D01*
X131620205Y-139111769D02*
X131620205Y-138892721D01*
X131127348Y-139604626D02*
X132277348Y-139604626D01*
X132277348Y-139604626D02*
X131127348Y-140261769D01*
X131127348Y-140261769D02*
X132277348Y-140261769D01*
X131127348Y-140809388D02*
X132277348Y-140809388D01*
X132277348Y-140809388D02*
X132277348Y-141083198D01*
X132277348Y-141083198D02*
X132222586Y-141247483D01*
X132222586Y-141247483D02*
X132113062Y-141357007D01*
X132113062Y-141357007D02*
X132003538Y-141411769D01*
X132003538Y-141411769D02*
X131784490Y-141466531D01*
X131784490Y-141466531D02*
X131620205Y-141466531D01*
X131620205Y-141466531D02*
X131401157Y-141411769D01*
X131401157Y-141411769D02*
X131291633Y-141357007D01*
X131291633Y-141357007D02*
X131182110Y-141247483D01*
X131182110Y-141247483D02*
X131127348Y-141083198D01*
X131127348Y-141083198D02*
X131127348Y-140809388D01*
X138747348Y-104499373D02*
X139294967Y-104116040D01*
X138747348Y-103842230D02*
X139897348Y-103842230D01*
X139897348Y-103842230D02*
X139897348Y-104280325D01*
X139897348Y-104280325D02*
X139842586Y-104389849D01*
X139842586Y-104389849D02*
X139787824Y-104444611D01*
X139787824Y-104444611D02*
X139678300Y-104499373D01*
X139678300Y-104499373D02*
X139514014Y-104499373D01*
X139514014Y-104499373D02*
X139404490Y-104444611D01*
X139404490Y-104444611D02*
X139349729Y-104389849D01*
X139349729Y-104389849D02*
X139294967Y-104280325D01*
X139294967Y-104280325D02*
X139294967Y-103842230D01*
X139897348Y-105211278D02*
X139897348Y-105430325D01*
X139897348Y-105430325D02*
X139842586Y-105539849D01*
X139842586Y-105539849D02*
X139733062Y-105649373D01*
X139733062Y-105649373D02*
X139514014Y-105704135D01*
X139514014Y-105704135D02*
X139130681Y-105704135D01*
X139130681Y-105704135D02*
X138911633Y-105649373D01*
X138911633Y-105649373D02*
X138802110Y-105539849D01*
X138802110Y-105539849D02*
X138747348Y-105430325D01*
X138747348Y-105430325D02*
X138747348Y-105211278D01*
X138747348Y-105211278D02*
X138802110Y-105101754D01*
X138802110Y-105101754D02*
X138911633Y-104992230D01*
X138911633Y-104992230D02*
X139130681Y-104937468D01*
X139130681Y-104937468D02*
X139514014Y-104937468D01*
X139514014Y-104937468D02*
X139733062Y-104992230D01*
X139733062Y-104992230D02*
X139842586Y-105101754D01*
X139842586Y-105101754D02*
X139897348Y-105211278D01*
X131127348Y-103842230D02*
X132277348Y-103842230D01*
X132277348Y-103842230D02*
X132277348Y-104116040D01*
X132277348Y-104116040D02*
X132222586Y-104280325D01*
X132222586Y-104280325D02*
X132113062Y-104389849D01*
X132113062Y-104389849D02*
X132003538Y-104444611D01*
X132003538Y-104444611D02*
X131784490Y-104499373D01*
X131784490Y-104499373D02*
X131620205Y-104499373D01*
X131620205Y-104499373D02*
X131401157Y-104444611D01*
X131401157Y-104444611D02*
X131291633Y-104389849D01*
X131291633Y-104389849D02*
X131182110Y-104280325D01*
X131182110Y-104280325D02*
X131127348Y-104116040D01*
X131127348Y-104116040D02*
X131127348Y-103842230D01*
X131127348Y-104992230D02*
X132277348Y-104992230D01*
X136809729Y-140938721D02*
X136754967Y-141103007D01*
X136754967Y-141103007D02*
X136700205Y-141157769D01*
X136700205Y-141157769D02*
X136590681Y-141212531D01*
X136590681Y-141212531D02*
X136426395Y-141212531D01*
X136426395Y-141212531D02*
X136316871Y-141157769D01*
X136316871Y-141157769D02*
X136262110Y-141103007D01*
X136262110Y-141103007D02*
X136207348Y-140993483D01*
X136207348Y-140993483D02*
X136207348Y-140555388D01*
X136207348Y-140555388D02*
X137357348Y-140555388D01*
X137357348Y-140555388D02*
X137357348Y-140938721D01*
X137357348Y-140938721D02*
X137302586Y-141048245D01*
X137302586Y-141048245D02*
X137247824Y-141103007D01*
X137247824Y-141103007D02*
X137138300Y-141157769D01*
X137138300Y-141157769D02*
X137028776Y-141157769D01*
X137028776Y-141157769D02*
X136919252Y-141103007D01*
X136919252Y-141103007D02*
X136864490Y-141048245D01*
X136864490Y-141048245D02*
X136809729Y-140938721D01*
X136809729Y-140938721D02*
X136809729Y-140555388D01*
D11*
X69881905Y-132497419D02*
X69881905Y-133306942D01*
X69881905Y-133306942D02*
X69929524Y-133402180D01*
X69929524Y-133402180D02*
X69977143Y-133449800D01*
X69977143Y-133449800D02*
X70072381Y-133497419D01*
X70072381Y-133497419D02*
X70262857Y-133497419D01*
X70262857Y-133497419D02*
X70358095Y-133449800D01*
X70358095Y-133449800D02*
X70405714Y-133402180D01*
X70405714Y-133402180D02*
X70453333Y-133306942D01*
X70453333Y-133306942D02*
X70453333Y-132497419D01*
X71453333Y-133497419D02*
X70881905Y-133497419D01*
X71167619Y-133497419D02*
X71167619Y-132497419D01*
X71167619Y-132497419D02*
X71072381Y-132640276D01*
X71072381Y-132640276D02*
X70977143Y-132735514D01*
X70977143Y-132735514D02*
X70881905Y-132783133D01*
X72405714Y-133497419D02*
X71834286Y-133497419D01*
X72120000Y-133497419D02*
X72120000Y-132497419D01*
X72120000Y-132497419D02*
X72024762Y-132640276D01*
X72024762Y-132640276D02*
X71929524Y-132735514D01*
X71929524Y-132735514D02*
X71834286Y-132783133D01*
X68748095Y-176217419D02*
X68748095Y-177026942D01*
X68748095Y-177026942D02*
X68795714Y-177122180D01*
X68795714Y-177122180D02*
X68843333Y-177169800D01*
X68843333Y-177169800D02*
X68938571Y-177217419D01*
X68938571Y-177217419D02*
X69129047Y-177217419D01*
X69129047Y-177217419D02*
X69224285Y-177169800D01*
X69224285Y-177169800D02*
X69271904Y-177122180D01*
X69271904Y-177122180D02*
X69319523Y-177026942D01*
X69319523Y-177026942D02*
X69319523Y-176217419D01*
X69843333Y-177217419D02*
X70033809Y-177217419D01*
X70033809Y-177217419D02*
X70129047Y-177169800D01*
X70129047Y-177169800D02*
X70176666Y-177122180D01*
X70176666Y-177122180D02*
X70271904Y-176979323D01*
X70271904Y-176979323D02*
X70319523Y-176788847D01*
X70319523Y-176788847D02*
X70319523Y-176407895D01*
X70319523Y-176407895D02*
X70271904Y-176312657D01*
X70271904Y-176312657D02*
X70224285Y-176265038D01*
X70224285Y-176265038D02*
X70129047Y-176217419D01*
X70129047Y-176217419D02*
X69938571Y-176217419D01*
X69938571Y-176217419D02*
X69843333Y-176265038D01*
X69843333Y-176265038D02*
X69795714Y-176312657D01*
X69795714Y-176312657D02*
X69748095Y-176407895D01*
X69748095Y-176407895D02*
X69748095Y-176645990D01*
X69748095Y-176645990D02*
X69795714Y-176741228D01*
X69795714Y-176741228D02*
X69843333Y-176788847D01*
X69843333Y-176788847D02*
X69938571Y-176836466D01*
X69938571Y-176836466D02*
X70129047Y-176836466D01*
X70129047Y-176836466D02*
X70224285Y-176788847D01*
X70224285Y-176788847D02*
X70271904Y-176741228D01*
X70271904Y-176741228D02*
X70319523Y-176645990D01*
X69341905Y-152087419D02*
X69341905Y-152896942D01*
X69341905Y-152896942D02*
X69389524Y-152992180D01*
X69389524Y-152992180D02*
X69437143Y-153039800D01*
X69437143Y-153039800D02*
X69532381Y-153087419D01*
X69532381Y-153087419D02*
X69722857Y-153087419D01*
X69722857Y-153087419D02*
X69818095Y-153039800D01*
X69818095Y-153039800D02*
X69865714Y-152992180D01*
X69865714Y-152992180D02*
X69913333Y-152896942D01*
X69913333Y-152896942D02*
X69913333Y-152087419D01*
X70913333Y-153087419D02*
X70341905Y-153087419D01*
X70627619Y-153087419D02*
X70627619Y-152087419D01*
X70627619Y-152087419D02*
X70532381Y-152230276D01*
X70532381Y-152230276D02*
X70437143Y-152325514D01*
X70437143Y-152325514D02*
X70341905Y-152373133D01*
X71532381Y-152087419D02*
X71627619Y-152087419D01*
X71627619Y-152087419D02*
X71722857Y-152135038D01*
X71722857Y-152135038D02*
X71770476Y-152182657D01*
X71770476Y-152182657D02*
X71818095Y-152277895D01*
X71818095Y-152277895D02*
X71865714Y-152468371D01*
X71865714Y-152468371D02*
X71865714Y-152706466D01*
X71865714Y-152706466D02*
X71818095Y-152896942D01*
X71818095Y-152896942D02*
X71770476Y-152992180D01*
X71770476Y-152992180D02*
X71722857Y-153039800D01*
X71722857Y-153039800D02*
X71627619Y-153087419D01*
X71627619Y-153087419D02*
X71532381Y-153087419D01*
X71532381Y-153087419D02*
X71437143Y-153039800D01*
X71437143Y-153039800D02*
X71389524Y-152992180D01*
X71389524Y-152992180D02*
X71341905Y-152896942D01*
X71341905Y-152896942D02*
X71294286Y-152706466D01*
X71294286Y-152706466D02*
X71294286Y-152468371D01*
X71294286Y-152468371D02*
X71341905Y-152277895D01*
X71341905Y-152277895D02*
X71389524Y-152182657D01*
X71389524Y-152182657D02*
X71437143Y-152135038D01*
X71437143Y-152135038D02*
X71532381Y-152087419D01*
X273111904Y-126522580D02*
X273111904Y-125713057D01*
X273111904Y-125713057D02*
X273064285Y-125617819D01*
X273064285Y-125617819D02*
X273016666Y-125570200D01*
X273016666Y-125570200D02*
X272921428Y-125522580D01*
X272921428Y-125522580D02*
X272730952Y-125522580D01*
X272730952Y-125522580D02*
X272635714Y-125570200D01*
X272635714Y-125570200D02*
X272588095Y-125617819D01*
X272588095Y-125617819D02*
X272540476Y-125713057D01*
X272540476Y-125713057D02*
X272540476Y-126522580D01*
X271921428Y-126094009D02*
X272016666Y-126141628D01*
X272016666Y-126141628D02*
X272064285Y-126189247D01*
X272064285Y-126189247D02*
X272111904Y-126284485D01*
X272111904Y-126284485D02*
X272111904Y-126332104D01*
X272111904Y-126332104D02*
X272064285Y-126427342D01*
X272064285Y-126427342D02*
X272016666Y-126474961D01*
X272016666Y-126474961D02*
X271921428Y-126522580D01*
X271921428Y-126522580D02*
X271730952Y-126522580D01*
X271730952Y-126522580D02*
X271635714Y-126474961D01*
X271635714Y-126474961D02*
X271588095Y-126427342D01*
X271588095Y-126427342D02*
X271540476Y-126332104D01*
X271540476Y-126332104D02*
X271540476Y-126284485D01*
X271540476Y-126284485D02*
X271588095Y-126189247D01*
X271588095Y-126189247D02*
X271635714Y-126141628D01*
X271635714Y-126141628D02*
X271730952Y-126094009D01*
X271730952Y-126094009D02*
X271921428Y-126094009D01*
X271921428Y-126094009D02*
X272016666Y-126046390D01*
X272016666Y-126046390D02*
X272064285Y-125998771D01*
X272064285Y-125998771D02*
X272111904Y-125903533D01*
X272111904Y-125903533D02*
X272111904Y-125713057D01*
X272111904Y-125713057D02*
X272064285Y-125617819D01*
X272064285Y-125617819D02*
X272016666Y-125570200D01*
X272016666Y-125570200D02*
X271921428Y-125522580D01*
X271921428Y-125522580D02*
X271730952Y-125522580D01*
X271730952Y-125522580D02*
X271635714Y-125570200D01*
X271635714Y-125570200D02*
X271588095Y-125617819D01*
X271588095Y-125617819D02*
X271540476Y-125713057D01*
X271540476Y-125713057D02*
X271540476Y-125903533D01*
X271540476Y-125903533D02*
X271588095Y-125998771D01*
X271588095Y-125998771D02*
X271635714Y-126046390D01*
X271635714Y-126046390D02*
X271730952Y-126094009D01*
D10*
X246598095Y-202474819D02*
X246598095Y-203284342D01*
X246598095Y-203284342D02*
X246645714Y-203379580D01*
X246645714Y-203379580D02*
X246693333Y-203427200D01*
X246693333Y-203427200D02*
X246788571Y-203474819D01*
X246788571Y-203474819D02*
X246979047Y-203474819D01*
X246979047Y-203474819D02*
X247074285Y-203427200D01*
X247074285Y-203427200D02*
X247121904Y-203379580D01*
X247121904Y-203379580D02*
X247169523Y-203284342D01*
X247169523Y-203284342D02*
X247169523Y-202474819D01*
X248074285Y-202808152D02*
X248074285Y-203474819D01*
X247836190Y-202427200D02*
X247598095Y-203141485D01*
X247598095Y-203141485D02*
X248217142Y-203141485D01*
X241198571Y-192724700D02*
X242341429Y-192724700D01*
X252198571Y-192724700D02*
X253341429Y-192724700D01*
X252770000Y-193296128D02*
X252770000Y-192153271D01*
X114847142Y-189624819D02*
X114513809Y-189148628D01*
X114275714Y-189624819D02*
X114275714Y-188624819D01*
X114275714Y-188624819D02*
X114656666Y-188624819D01*
X114656666Y-188624819D02*
X114751904Y-188672438D01*
X114751904Y-188672438D02*
X114799523Y-188720057D01*
X114799523Y-188720057D02*
X114847142Y-188815295D01*
X114847142Y-188815295D02*
X114847142Y-188958152D01*
X114847142Y-188958152D02*
X114799523Y-189053390D01*
X114799523Y-189053390D02*
X114751904Y-189101009D01*
X114751904Y-189101009D02*
X114656666Y-189148628D01*
X114656666Y-189148628D02*
X114275714Y-189148628D01*
X115799523Y-189624819D02*
X115228095Y-189624819D01*
X115513809Y-189624819D02*
X115513809Y-188624819D01*
X115513809Y-188624819D02*
X115418571Y-188767676D01*
X115418571Y-188767676D02*
X115323333Y-188862914D01*
X115323333Y-188862914D02*
X115228095Y-188910533D01*
X116132857Y-188624819D02*
X116799523Y-188624819D01*
X116799523Y-188624819D02*
X116370952Y-189624819D01*
X232128571Y-192724700D02*
X233271429Y-192724700D01*
X232700000Y-193296128D02*
X232700000Y-192153271D01*
X221128571Y-192724700D02*
X222271429Y-192724700D01*
X97241905Y-142974819D02*
X97241905Y-141974819D01*
X97813333Y-142974819D02*
X97384762Y-142403390D01*
X97813333Y-141974819D02*
X97241905Y-142546247D01*
X98765714Y-142974819D02*
X98194286Y-142974819D01*
X98480000Y-142974819D02*
X98480000Y-141974819D01*
X98480000Y-141974819D02*
X98384762Y-142117676D01*
X98384762Y-142117676D02*
X98289524Y-142212914D01*
X98289524Y-142212914D02*
X98194286Y-142260533D01*
D13*
%TO.C,Q8*%
X123460000Y-180652500D02*
X123460000Y-180002500D01*
X123460000Y-180652500D02*
X123460000Y-181302500D01*
X126580000Y-180652500D02*
X126580000Y-180002500D01*
X126580000Y-180652500D02*
X126580000Y-181302500D01*
X126860000Y-179730000D02*
X126530000Y-179490000D01*
X126860000Y-179250000D01*
X126860000Y-179730000D01*
G36*
X126860000Y-179730000D02*
G01*
X126530000Y-179490000D01*
X126860000Y-179250000D01*
X126860000Y-179730000D01*
G37*
%TO.C,R7*%
X136230000Y-159370000D02*
X137000000Y-159370000D01*
X137000000Y-158000000D02*
X137000000Y-160740000D01*
X137000000Y-160740000D02*
X143540000Y-160740000D01*
X143540000Y-158000000D02*
X137000000Y-158000000D01*
X143540000Y-160740000D02*
X143540000Y-158000000D01*
X144310000Y-159370000D02*
X143540000Y-159370000D01*
D11*
%TO.C,U7*%
X266400000Y-145750000D02*
X266400000Y-140950000D01*
X258200000Y-150550000D02*
X266000000Y-150550000D01*
X266000000Y-140950000D01*
X258200000Y-140950000D01*
X258200000Y-150550000D01*
X266000000Y-150550000D02*
X278800000Y-150550000D01*
X278800000Y-140950000D01*
X266000000Y-140950000D01*
X266000000Y-150550000D01*
D13*
%TO.C,R1*%
X102420000Y-111360000D02*
X103190000Y-111360000D01*
X103190000Y-109990000D02*
X103190000Y-112730000D01*
X103190000Y-112730000D02*
X109730000Y-112730000D01*
X109730000Y-109990000D02*
X103190000Y-109990000D01*
X109730000Y-112730000D02*
X109730000Y-109990000D01*
X110500000Y-111360000D02*
X109730000Y-111360000D01*
%TO.C,D4*%
X118190000Y-186395000D02*
X118190000Y-183305000D01*
X112640000Y-184849952D02*
G75*
G02*
X118190000Y-183305170I2990000J-48D01*
G01*
X118190000Y-186394830D02*
G75*
G02*
X112640000Y-184850048I-2560000J1544830D01*
G01*
X118130000Y-184850000D02*
G75*
G02*
X113130000Y-184850000I-2500000J0D01*
G01*
X113130000Y-184850000D02*
G75*
G02*
X118130000Y-184850000I2500000J0D01*
G01*
%TO.C,Q5*%
X125397500Y-148170000D02*
X124747500Y-148170000D01*
X125397500Y-148170000D02*
X126047500Y-148170000D01*
X125397500Y-151290000D02*
X124747500Y-151290000D01*
X125397500Y-151290000D02*
X126047500Y-151290000D01*
X124235000Y-148220000D02*
X123995000Y-147890000D01*
X124475000Y-147890000D01*
X124235000Y-148220000D01*
G36*
X124235000Y-148220000D02*
G01*
X123995000Y-147890000D01*
X124475000Y-147890000D01*
X124235000Y-148220000D01*
G37*
%TO.C,R18*%
X111480000Y-195550000D02*
X112250000Y-195550000D01*
X112250000Y-194180000D02*
X112250000Y-196920000D01*
X112250000Y-196920000D02*
X118790000Y-196920000D01*
X118790000Y-194180000D02*
X112250000Y-194180000D01*
X118790000Y-196920000D02*
X118790000Y-194180000D01*
X119560000Y-195550000D02*
X118790000Y-195550000D01*
%TO.C,D2*%
X119170000Y-150965000D02*
X119170000Y-147875000D01*
X113620000Y-149419952D02*
G75*
G02*
X119170000Y-147875170I2990000J-48D01*
G01*
X119170000Y-150964830D02*
G75*
G02*
X113620000Y-149420048I-2560000J1544830D01*
G01*
X119110000Y-149420000D02*
G75*
G02*
X114110000Y-149420000I-2500000J0D01*
G01*
X114110000Y-149420000D02*
G75*
G02*
X119110000Y-149420000I2500000J0D01*
G01*
%TO.C,D1*%
X124090000Y-155670000D02*
X124090000Y-162210000D01*
X124090000Y-162210000D02*
X126830000Y-162210000D01*
X125460000Y-154900000D02*
X125460000Y-155670000D01*
X125460000Y-162980000D02*
X125460000Y-162210000D01*
X126830000Y-155670000D02*
X124090000Y-155670000D01*
X126830000Y-162210000D02*
X126830000Y-155670000D01*
%TO.C,R8*%
X136210000Y-163360000D02*
X136980000Y-163360000D01*
X136980000Y-161990000D02*
X136980000Y-164730000D01*
X136980000Y-164730000D02*
X143520000Y-164730000D01*
X143520000Y-161990000D02*
X136980000Y-161990000D01*
X143520000Y-164730000D02*
X143520000Y-161990000D01*
X144290000Y-163360000D02*
X143520000Y-163360000D01*
%TO.C,R16*%
X136220000Y-180410000D02*
X136990000Y-180410000D01*
X136990000Y-179040000D02*
X136990000Y-181780000D01*
X136990000Y-181780000D02*
X143530000Y-181780000D01*
X143530000Y-179040000D02*
X136990000Y-179040000D01*
X143530000Y-181780000D02*
X143530000Y-179040000D01*
X144300000Y-180410000D02*
X143530000Y-180410000D01*
%TO.C,R13*%
X136200000Y-167410000D02*
X136970000Y-167410000D01*
X136970000Y-166040000D02*
X136970000Y-168780000D01*
X136970000Y-168780000D02*
X143510000Y-168780000D01*
X143510000Y-166040000D02*
X136970000Y-166040000D01*
X143510000Y-168780000D02*
X143510000Y-166040000D01*
X144280000Y-167410000D02*
X143510000Y-167410000D01*
%TO.C,Q2*%
X97892500Y-122050000D02*
X97242500Y-122050000D01*
X97892500Y-122050000D02*
X98542500Y-122050000D01*
X97892500Y-125170000D02*
X97242500Y-125170000D01*
X97892500Y-125170000D02*
X98542500Y-125170000D01*
X99295000Y-125450000D02*
X98815000Y-125450000D01*
X99055000Y-125120000D01*
X99295000Y-125450000D01*
G36*
X99295000Y-125450000D02*
G01*
X98815000Y-125450000D01*
X99055000Y-125120000D01*
X99295000Y-125450000D01*
G37*
%TO.C,R9*%
X111410000Y-160070000D02*
X112180000Y-160070000D01*
X112180000Y-158700000D02*
X112180000Y-161440000D01*
X112180000Y-161440000D02*
X118720000Y-161440000D01*
X118720000Y-158700000D02*
X112180000Y-158700000D01*
X118720000Y-161440000D02*
X118720000Y-158700000D01*
X119490000Y-160070000D02*
X118720000Y-160070000D01*
%TO.C,Q6*%
X130897500Y-167260000D02*
X130247500Y-167260000D01*
X130897500Y-167260000D02*
X131547500Y-167260000D01*
X130897500Y-170380000D02*
X130247500Y-170380000D01*
X130897500Y-170380000D02*
X131547500Y-170380000D01*
X132300000Y-170660000D02*
X131820000Y-170660000D01*
X132060000Y-170330000D01*
X132300000Y-170660000D01*
G36*
X132300000Y-170660000D02*
G01*
X131820000Y-170660000D01*
X132060000Y-170330000D01*
X132300000Y-170660000D01*
G37*
%TO.C,R6*%
X102460000Y-107350000D02*
X103230000Y-107350000D01*
X103230000Y-105980000D02*
X103230000Y-108720000D01*
X103230000Y-108720000D02*
X109770000Y-108720000D01*
X109770000Y-105980000D02*
X103230000Y-105980000D01*
X109770000Y-108720000D02*
X109770000Y-105980000D01*
X110540000Y-107350000D02*
X109770000Y-107350000D01*
%TO.C,U3*%
D11*
X152360000Y-95260000D02*
X222360000Y-95260000D01*
X222360000Y-180260000D01*
X152360000Y-180260000D01*
X152360000Y-95260000D01*
X194360000Y-95260000D02*
X204360000Y-95260000D01*
X204360000Y-105260000D01*
X194360000Y-105260000D01*
X194360000Y-95260000D01*
D13*
%TO.C,D3*%
X123100000Y-186490000D02*
X123100000Y-195630000D01*
X123100000Y-195630000D02*
X123430000Y-195630000D01*
X123430000Y-186490000D02*
X123100000Y-186490000D01*
X126710000Y-186490000D02*
X127040000Y-186490000D01*
X127040000Y-186490000D02*
X127040000Y-195630000D01*
X127040000Y-187825000D02*
X123100000Y-187825000D01*
X127040000Y-187945000D02*
X123100000Y-187945000D01*
X127040000Y-188065000D02*
X123100000Y-188065000D01*
X127040000Y-195630000D02*
X126710000Y-195630000D01*
%TO.C,R11*%
X111400000Y-164100000D02*
X112170000Y-164100000D01*
X112170000Y-162730000D02*
X112170000Y-165470000D01*
X112170000Y-165470000D02*
X118710000Y-165470000D01*
X118710000Y-162730000D02*
X112170000Y-162730000D01*
X118710000Y-165470000D02*
X118710000Y-162730000D01*
X119480000Y-164100000D02*
X118710000Y-164100000D01*
%TO.C,R12*%
X136210000Y-171380000D02*
X136980000Y-171380000D01*
X136980000Y-170010000D02*
X136980000Y-172750000D01*
X136980000Y-172750000D02*
X143520000Y-172750000D01*
X143520000Y-170010000D02*
X136980000Y-170010000D01*
X143520000Y-172750000D02*
X143520000Y-170010000D01*
X144290000Y-171380000D02*
X143520000Y-171380000D01*
%TO.C,U1*%
D11*
X226580000Y-150450000D02*
X254580000Y-150450000D01*
X254580000Y-95450000D01*
X226580000Y-95450000D01*
X226580000Y-150450000D01*
X232580000Y-95490000D02*
X247580000Y-95490000D01*
X247580000Y-91490000D01*
X232580000Y-91490000D01*
X232580000Y-95490000D01*
D13*
%TO.C,R14*%
X136210000Y-176380000D02*
X136980000Y-176380000D01*
X136980000Y-175010000D02*
X136980000Y-177750000D01*
X136980000Y-177750000D02*
X143520000Y-177750000D01*
X143520000Y-175010000D02*
X136980000Y-175010000D01*
X143520000Y-177750000D02*
X143520000Y-175010000D01*
X144290000Y-176380000D02*
X143520000Y-176380000D01*
%TO.C,R2*%
X102390000Y-115380000D02*
X103160000Y-115380000D01*
X103160000Y-114010000D02*
X103160000Y-116750000D01*
X103160000Y-116750000D02*
X109700000Y-116750000D01*
X109700000Y-114010000D02*
X103160000Y-114010000D01*
X109700000Y-116750000D02*
X109700000Y-114010000D01*
X110470000Y-115380000D02*
X109700000Y-115380000D01*
%TO.C,U5*%
X233150000Y-174050000D02*
X233150000Y-175310000D01*
X233150000Y-180870000D02*
X233150000Y-179610000D01*
X236910000Y-174050000D02*
X233150000Y-174050000D01*
X236910000Y-180870000D02*
X233150000Y-180870000D01*
X238430000Y-181100000D02*
X237950000Y-181100000D01*
X238190000Y-180770000D01*
X238430000Y-181100000D01*
G36*
X238430000Y-181100000D02*
G01*
X237950000Y-181100000D01*
X238190000Y-180770000D01*
X238430000Y-181100000D01*
G37*
%TO.C,R10*%
X111540000Y-156020000D02*
X112310000Y-156020000D01*
X112310000Y-154650000D02*
X112310000Y-157390000D01*
X112310000Y-157390000D02*
X118850000Y-157390000D01*
X118850000Y-154650000D02*
X112310000Y-154650000D01*
X118850000Y-157390000D02*
X118850000Y-154650000D01*
X119620000Y-156020000D02*
X118850000Y-156020000D01*
D12*
%TO.C,U2*%
X128520000Y-100680000D02*
X128520000Y-144680000D01*
X128520000Y-100680000D02*
X142520000Y-100680000D01*
X128520000Y-144680000D02*
X142520000Y-144680000D01*
X142520000Y-100680000D02*
X142520000Y-144680000D01*
D13*
%TO.C,Q3*%
X97767500Y-106020000D02*
X97117500Y-106020000D01*
X97767500Y-106020000D02*
X98417500Y-106020000D01*
X97767500Y-109140000D02*
X97117500Y-109140000D01*
X97767500Y-109140000D02*
X98417500Y-109140000D01*
X99170000Y-109420000D02*
X98690000Y-109420000D01*
X98930000Y-109090000D01*
X99170000Y-109420000D01*
G36*
X99170000Y-109420000D02*
G01*
X98690000Y-109420000D01*
X98930000Y-109090000D01*
X99170000Y-109420000D01*
G37*
D11*
%TO.C,U11*%
X76960000Y-132300000D02*
X76960000Y-137100000D01*
X77360000Y-127500000D02*
X64560000Y-127500000D01*
X64560000Y-137100000D01*
X77360000Y-137100000D01*
X77360000Y-127500000D01*
X85160000Y-127500000D02*
X77360000Y-127500000D01*
X77360000Y-137100000D01*
X85160000Y-137100000D01*
X85160000Y-127500000D01*
D13*
%TO.C,K2*%
X89440000Y-179010000D02*
X89440000Y-201710000D01*
X89440000Y-201710000D02*
X106140000Y-201710000D01*
X93290000Y-183860000D02*
X96440000Y-183860000D01*
X96790000Y-178750000D02*
X98790000Y-178750000D01*
X97440000Y-183260000D02*
X97440000Y-184460000D01*
X97440000Y-184060000D02*
X98140000Y-183660000D01*
X97440000Y-184460000D02*
X98140000Y-184460000D01*
X98140000Y-183260000D02*
X97440000Y-183260000D01*
X98140000Y-184460000D02*
X98140000Y-183260000D01*
X99140000Y-183860000D02*
X102290000Y-183860000D01*
X106140000Y-179010000D02*
X89440000Y-179010000D01*
X106140000Y-201710000D02*
X106140000Y-179010000D01*
D11*
%TO.C,U9*%
X76970000Y-176200000D02*
X76970000Y-181000000D01*
X77370000Y-171400000D02*
X64570000Y-171400000D01*
X64570000Y-181000000D01*
X77370000Y-181000000D01*
X77370000Y-171400000D01*
X85170000Y-171400000D02*
X77370000Y-171400000D01*
X77370000Y-181000000D01*
X85170000Y-181000000D01*
X85170000Y-171400000D01*
D13*
%TO.C,Q7*%
X130897500Y-176720000D02*
X130247500Y-176720000D01*
X130897500Y-176720000D02*
X131547500Y-176720000D01*
X130897500Y-179840000D02*
X130247500Y-179840000D01*
X130897500Y-179840000D02*
X131547500Y-179840000D01*
X132300000Y-180120000D02*
X131820000Y-180120000D01*
X132060000Y-179790000D01*
X132300000Y-180120000D01*
G36*
X132300000Y-180120000D02*
G01*
X131820000Y-180120000D01*
X132060000Y-179790000D01*
X132300000Y-180120000D01*
G37*
%TO.C,C1*%
X245600354Y-173425000D02*
X246600354Y-173425000D01*
X246100354Y-172925000D02*
X246100354Y-173925000D01*
X251080000Y-171220000D02*
X251080000Y-181380000D01*
X251120000Y-171220000D02*
X251120000Y-181380000D01*
X251160000Y-171220000D02*
X251160000Y-181380000D01*
X251200000Y-171221000D02*
X251200000Y-181379000D01*
X251240000Y-171222000D02*
X251240000Y-181378000D01*
X251280000Y-171223000D02*
X251280000Y-181377000D01*
X251320000Y-171225000D02*
X251320000Y-181375000D01*
X251360000Y-171227000D02*
X251360000Y-181373000D01*
X251400000Y-171230000D02*
X251400000Y-181370000D01*
X251440000Y-171232000D02*
X251440000Y-181368000D01*
X251480000Y-171235000D02*
X251480000Y-181365000D01*
X251520000Y-171238000D02*
X251520000Y-181362000D01*
X251560000Y-171242000D02*
X251560000Y-181358000D01*
X251600000Y-171246000D02*
X251600000Y-181354000D01*
X251640000Y-171250000D02*
X251640000Y-181350000D01*
X251680000Y-171255000D02*
X251680000Y-181345000D01*
X251720000Y-171260000D02*
X251720000Y-181340000D01*
X251760000Y-171265000D02*
X251760000Y-181335000D01*
X251801000Y-171270000D02*
X251801000Y-181330000D01*
X251841000Y-171276000D02*
X251841000Y-181324000D01*
X251881000Y-171282000D02*
X251881000Y-181318000D01*
X251921000Y-171289000D02*
X251921000Y-181311000D01*
X251961000Y-171296000D02*
X251961000Y-181304000D01*
X252001000Y-171303000D02*
X252001000Y-181297000D01*
X252041000Y-171310000D02*
X252041000Y-181290000D01*
X252081000Y-171318000D02*
X252081000Y-181282000D01*
X252121000Y-171326000D02*
X252121000Y-181274000D01*
X252161000Y-171335000D02*
X252161000Y-181265000D01*
X252201000Y-171344000D02*
X252201000Y-181256000D01*
X252241000Y-171353000D02*
X252241000Y-181247000D01*
X252281000Y-171362000D02*
X252281000Y-181238000D01*
X252321000Y-171372000D02*
X252321000Y-181228000D01*
X252361000Y-171382000D02*
X252361000Y-175059000D01*
X252361000Y-177541000D02*
X252361000Y-181218000D01*
X252401000Y-171393000D02*
X252401000Y-175059000D01*
X252401000Y-177541000D02*
X252401000Y-181207000D01*
X252441000Y-171403000D02*
X252441000Y-175059000D01*
X252441000Y-177541000D02*
X252441000Y-181197000D01*
X252481000Y-171415000D02*
X252481000Y-175059000D01*
X252481000Y-177541000D02*
X252481000Y-181185000D01*
X252521000Y-171426000D02*
X252521000Y-175059000D01*
X252521000Y-177541000D02*
X252521000Y-181174000D01*
X252561000Y-171438000D02*
X252561000Y-175059000D01*
X252561000Y-177541000D02*
X252561000Y-181162000D01*
X252601000Y-171450000D02*
X252601000Y-175059000D01*
X252601000Y-177541000D02*
X252601000Y-181150000D01*
X252641000Y-171463000D02*
X252641000Y-175059000D01*
X252641000Y-177541000D02*
X252641000Y-181137000D01*
X252681000Y-171476000D02*
X252681000Y-175059000D01*
X252681000Y-177541000D02*
X252681000Y-181124000D01*
X252721000Y-171489000D02*
X252721000Y-175059000D01*
X252721000Y-177541000D02*
X252721000Y-181111000D01*
X252761000Y-171503000D02*
X252761000Y-175059000D01*
X252761000Y-177541000D02*
X252761000Y-181097000D01*
X252801000Y-171517000D02*
X252801000Y-175059000D01*
X252801000Y-177541000D02*
X252801000Y-181083000D01*
X252841000Y-171532000D02*
X252841000Y-175059000D01*
X252841000Y-177541000D02*
X252841000Y-181068000D01*
X252881000Y-171546000D02*
X252881000Y-175059000D01*
X252881000Y-177541000D02*
X252881000Y-181054000D01*
X252921000Y-171562000D02*
X252921000Y-175059000D01*
X252921000Y-177541000D02*
X252921000Y-181038000D01*
X252961000Y-171577000D02*
X252961000Y-175059000D01*
X252961000Y-177541000D02*
X252961000Y-181023000D01*
X253001000Y-171593000D02*
X253001000Y-175059000D01*
X253001000Y-177541000D02*
X253001000Y-181007000D01*
X253041000Y-171610000D02*
X253041000Y-175059000D01*
X253041000Y-177541000D02*
X253041000Y-180990000D01*
X253081000Y-171626000D02*
X253081000Y-175059000D01*
X253081000Y-177541000D02*
X253081000Y-180974000D01*
X253121000Y-171643000D02*
X253121000Y-175059000D01*
X253121000Y-177541000D02*
X253121000Y-180957000D01*
X253161000Y-171661000D02*
X253161000Y-175059000D01*
X253161000Y-177541000D02*
X253161000Y-180939000D01*
X253201000Y-171679000D02*
X253201000Y-175059000D01*
X253201000Y-177541000D02*
X253201000Y-180921000D01*
X253241000Y-171697000D02*
X253241000Y-175059000D01*
X253241000Y-177541000D02*
X253241000Y-180903000D01*
X253281000Y-171716000D02*
X253281000Y-175059000D01*
X253281000Y-177541000D02*
X253281000Y-180884000D01*
X253321000Y-171736000D02*
X253321000Y-175059000D01*
X253321000Y-177541000D02*
X253321000Y-180864000D01*
X253361000Y-171755000D02*
X253361000Y-175059000D01*
X253361000Y-177541000D02*
X253361000Y-180845000D01*
X253401000Y-171775000D02*
X253401000Y-175059000D01*
X253401000Y-177541000D02*
X253401000Y-180825000D01*
X253441000Y-171796000D02*
X253441000Y-175059000D01*
X253441000Y-177541000D02*
X253441000Y-180804000D01*
X253481000Y-171817000D02*
X253481000Y-175059000D01*
X253481000Y-177541000D02*
X253481000Y-180783000D01*
X253521000Y-171838000D02*
X253521000Y-175059000D01*
X253521000Y-177541000D02*
X253521000Y-180762000D01*
X253561000Y-171860000D02*
X253561000Y-175059000D01*
X253561000Y-177541000D02*
X253561000Y-180740000D01*
X253601000Y-171883000D02*
X253601000Y-175059000D01*
X253601000Y-177541000D02*
X253601000Y-180717000D01*
X253641000Y-171905000D02*
X253641000Y-175059000D01*
X253641000Y-177541000D02*
X253641000Y-180695000D01*
X253681000Y-171929000D02*
X253681000Y-175059000D01*
X253681000Y-177541000D02*
X253681000Y-180671000D01*
X253721000Y-171953000D02*
X253721000Y-175059000D01*
X253721000Y-177541000D02*
X253721000Y-180647000D01*
X253761000Y-171977000D02*
X253761000Y-175059000D01*
X253761000Y-177541000D02*
X253761000Y-180623000D01*
X253801000Y-172002000D02*
X253801000Y-175059000D01*
X253801000Y-177541000D02*
X253801000Y-180598000D01*
X253841000Y-172027000D02*
X253841000Y-175059000D01*
X253841000Y-177541000D02*
X253841000Y-180573000D01*
X253881000Y-172053000D02*
X253881000Y-175059000D01*
X253881000Y-177541000D02*
X253881000Y-180547000D01*
X253921000Y-172079000D02*
X253921000Y-175059000D01*
X253921000Y-177541000D02*
X253921000Y-180521000D01*
X253961000Y-172106000D02*
X253961000Y-175059000D01*
X253961000Y-177541000D02*
X253961000Y-180494000D01*
X254001000Y-172134000D02*
X254001000Y-175059000D01*
X254001000Y-177541000D02*
X254001000Y-180466000D01*
X254041000Y-172162000D02*
X254041000Y-175059000D01*
X254041000Y-177541000D02*
X254041000Y-180438000D01*
X254081000Y-172190000D02*
X254081000Y-175059000D01*
X254081000Y-177541000D02*
X254081000Y-180410000D01*
X254121000Y-172220000D02*
X254121000Y-175059000D01*
X254121000Y-177541000D02*
X254121000Y-180380000D01*
X254161000Y-172250000D02*
X254161000Y-175059000D01*
X254161000Y-177541000D02*
X254161000Y-180350000D01*
X254201000Y-172280000D02*
X254201000Y-175059000D01*
X254201000Y-177541000D02*
X254201000Y-180320000D01*
X254241000Y-172311000D02*
X254241000Y-175059000D01*
X254241000Y-177541000D02*
X254241000Y-180289000D01*
X254281000Y-172343000D02*
X254281000Y-175059000D01*
X254281000Y-177541000D02*
X254281000Y-180257000D01*
X254321000Y-172375000D02*
X254321000Y-175059000D01*
X254321000Y-177541000D02*
X254321000Y-180225000D01*
X254361000Y-172408000D02*
X254361000Y-175059000D01*
X254361000Y-177541000D02*
X254361000Y-180192000D01*
X254401000Y-172442000D02*
X254401000Y-175059000D01*
X254401000Y-177541000D02*
X254401000Y-180158000D01*
X254441000Y-172476000D02*
X254441000Y-175059000D01*
X254441000Y-177541000D02*
X254441000Y-180124000D01*
X254481000Y-172511000D02*
X254481000Y-175059000D01*
X254481000Y-177541000D02*
X254481000Y-180089000D01*
X254521000Y-172547000D02*
X254521000Y-175059000D01*
X254521000Y-177541000D02*
X254521000Y-180053000D01*
X254561000Y-172584000D02*
X254561000Y-175059000D01*
X254561000Y-177541000D02*
X254561000Y-180016000D01*
X254601000Y-172621000D02*
X254601000Y-175059000D01*
X254601000Y-177541000D02*
X254601000Y-179979000D01*
X254641000Y-172660000D02*
X254641000Y-175059000D01*
X254641000Y-177541000D02*
X254641000Y-179940000D01*
X254681000Y-172699000D02*
X254681000Y-175059000D01*
X254681000Y-177541000D02*
X254681000Y-179901000D01*
X254721000Y-172739000D02*
X254721000Y-175059000D01*
X254721000Y-177541000D02*
X254721000Y-179861000D01*
X254761000Y-172780000D02*
X254761000Y-175059000D01*
X254761000Y-177541000D02*
X254761000Y-179820000D01*
X254801000Y-172822000D02*
X254801000Y-175059000D01*
X254801000Y-177541000D02*
X254801000Y-179778000D01*
X254841000Y-172864000D02*
X254841000Y-179736000D01*
X254881000Y-172908000D02*
X254881000Y-179692000D01*
X254921000Y-172953000D02*
X254921000Y-179647000D01*
X254961000Y-172999000D02*
X254961000Y-179601000D01*
X255001000Y-173046000D02*
X255001000Y-179554000D01*
X255041000Y-173094000D02*
X255041000Y-179506000D01*
X255081000Y-173144000D02*
X255081000Y-179456000D01*
X255121000Y-173194000D02*
X255121000Y-179406000D01*
X255161000Y-173246000D02*
X255161000Y-179354000D01*
X255201000Y-173300000D02*
X255201000Y-179300000D01*
X255241000Y-173355000D02*
X255241000Y-179245000D01*
X255281000Y-173411000D02*
X255281000Y-179189000D01*
X255321000Y-173470000D02*
X255321000Y-179130000D01*
X255361000Y-173530000D02*
X255361000Y-179070000D01*
X255401000Y-173591000D02*
X255401000Y-179009000D01*
X255441000Y-173655000D02*
X255441000Y-178945000D01*
X255481000Y-173721000D02*
X255481000Y-178879000D01*
X255521000Y-173790000D02*
X255521000Y-178810000D01*
X255561000Y-173861000D02*
X255561000Y-178739000D01*
X255601000Y-173935000D02*
X255601000Y-178665000D01*
X255641000Y-174011000D02*
X255641000Y-178589000D01*
X255681000Y-174091000D02*
X255681000Y-178509000D01*
X255721000Y-174175000D02*
X255721000Y-178425000D01*
X255761000Y-174263000D02*
X255761000Y-178337000D01*
X255801000Y-174356000D02*
X255801000Y-178244000D01*
X255841000Y-174454000D02*
X255841000Y-178146000D01*
X255881000Y-174558000D02*
X255881000Y-178042000D01*
X255921000Y-174670000D02*
X255921000Y-177930000D01*
X255961000Y-174790000D02*
X255961000Y-177810000D01*
X256001000Y-174922000D02*
X256001000Y-177678000D01*
X256041000Y-175070000D02*
X256041000Y-177530000D01*
X256081000Y-175238000D02*
X256081000Y-177362000D01*
X256121000Y-175438000D02*
X256121000Y-177162000D01*
X256161000Y-175701000D02*
X256161000Y-176899000D01*
X256200000Y-176300000D02*
G75*
G02*
X245960000Y-176300000I-5120000J0D01*
G01*
X245960000Y-176300000D02*
G75*
G02*
X256200000Y-176300000I5120000J0D01*
G01*
D11*
%TO.C,U10*%
X76960000Y-152400000D02*
X76960000Y-157200000D01*
X77360000Y-147600000D02*
X64560000Y-147600000D01*
X64560000Y-157200000D01*
X77360000Y-157200000D01*
X77360000Y-147600000D01*
X85160000Y-147600000D02*
X77360000Y-147600000D01*
X77360000Y-157200000D01*
X85160000Y-157200000D01*
X85160000Y-147600000D01*
D13*
%TO.C,R4*%
X102420000Y-119360000D02*
X103190000Y-119360000D01*
X103190000Y-117990000D02*
X103190000Y-120730000D01*
X103190000Y-120730000D02*
X109730000Y-120730000D01*
X109730000Y-117990000D02*
X103190000Y-117990000D01*
X109730000Y-120730000D02*
X109730000Y-117990000D01*
X110500000Y-119360000D02*
X109730000Y-119360000D01*
%TO.C,R5*%
X102440000Y-127410000D02*
X103210000Y-127410000D01*
X103210000Y-126040000D02*
X103210000Y-128780000D01*
X103210000Y-128780000D02*
X109750000Y-128780000D01*
X109750000Y-126040000D02*
X103210000Y-126040000D01*
X109750000Y-128780000D02*
X109750000Y-126040000D01*
X110520000Y-127410000D02*
X109750000Y-127410000D01*
D11*
%TO.C,U8*%
X266850000Y-125680000D02*
X266850000Y-120880000D01*
X258650000Y-130480000D02*
X266450000Y-130480000D01*
X266450000Y-120880000D01*
X258650000Y-120880000D01*
X258650000Y-130480000D01*
X266450000Y-130480000D02*
X279250000Y-130480000D01*
X279250000Y-120880000D01*
X266450000Y-120880000D01*
X266450000Y-130480000D01*
D13*
%TO.C,Q4*%
X130917500Y-159120000D02*
X130267500Y-159120000D01*
X130917500Y-159120000D02*
X131567500Y-159120000D01*
X130917500Y-162240000D02*
X130267500Y-162240000D01*
X130917500Y-162240000D02*
X131567500Y-162240000D01*
X129755000Y-159170000D02*
X129515000Y-158840000D01*
X129995000Y-158840000D01*
X129755000Y-159170000D01*
G36*
X129755000Y-159170000D02*
G01*
X129515000Y-158840000D01*
X129995000Y-158840000D01*
X129755000Y-159170000D01*
G37*
%TO.C,Q1*%
X97832500Y-114050000D02*
X97182500Y-114050000D01*
X97832500Y-114050000D02*
X98482500Y-114050000D01*
X97832500Y-117170000D02*
X97182500Y-117170000D01*
X97832500Y-117170000D02*
X98482500Y-117170000D01*
X99235000Y-117450000D02*
X98755000Y-117450000D01*
X98995000Y-117120000D01*
X99235000Y-117450000D01*
G36*
X99235000Y-117450000D02*
G01*
X98755000Y-117450000D01*
X98995000Y-117120000D01*
X99235000Y-117450000D01*
G37*
%TO.C,U4*%
X242210000Y-201500000D02*
X241620000Y-201500000D01*
X242210000Y-201500000D02*
X242210000Y-196600000D01*
X242210000Y-203720000D02*
X241620000Y-203720000D01*
X242210000Y-205820000D02*
X242210000Y-203720000D01*
X252330000Y-196600000D02*
X242210000Y-196600000D01*
X252330000Y-201500000D02*
X252330000Y-196600000D01*
X252330000Y-205820000D02*
X242210000Y-205820000D01*
X252330000Y-205820000D02*
X252330000Y-203720000D01*
X252920000Y-201500000D02*
X252330000Y-201500000D01*
X252920000Y-203720000D02*
X252330000Y-203720000D01*
X241620000Y-203720000D02*
G75*
G02*
X241620000Y-201500000I0J1110000D01*
G01*
X252920000Y-201500000D02*
G75*
G02*
X252920000Y-203720000I0J-1110000D01*
G01*
%TO.C,R17*%
X111450000Y-191540000D02*
X112220000Y-191540000D01*
X112220000Y-190170000D02*
X112220000Y-192910000D01*
X112220000Y-192910000D02*
X118760000Y-192910000D01*
X118760000Y-190170000D02*
X112220000Y-190170000D01*
X118760000Y-192910000D02*
X118760000Y-190170000D01*
X119530000Y-191540000D02*
X118760000Y-191540000D01*
%TO.C,U6*%
X222140000Y-201500000D02*
X221550000Y-201500000D01*
X222140000Y-201500000D02*
X222140000Y-196600000D01*
X222140000Y-203720000D02*
X221550000Y-203720000D01*
X222140000Y-205820000D02*
X222140000Y-203720000D01*
X232260000Y-196600000D02*
X222140000Y-196600000D01*
X232260000Y-201500000D02*
X232260000Y-196600000D01*
X232260000Y-205820000D02*
X222140000Y-205820000D01*
X232260000Y-205820000D02*
X232260000Y-203720000D01*
X232850000Y-201500000D02*
X232260000Y-201500000D01*
X232850000Y-203720000D02*
X232260000Y-203720000D01*
X221550000Y-203720000D02*
G75*
G02*
X221550000Y-201500000I0J1110000D01*
G01*
X232850000Y-201500000D02*
G75*
G02*
X232850000Y-203720000I0J-1110000D01*
G01*
%TO.C,K1*%
X89630000Y-143670000D02*
X89630000Y-166370000D01*
X89630000Y-166370000D02*
X106330000Y-166370000D01*
X93480000Y-148520000D02*
X96630000Y-148520000D01*
X96980000Y-143410000D02*
X98980000Y-143410000D01*
X97630000Y-147920000D02*
X97630000Y-149120000D01*
X97630000Y-148720000D02*
X98330000Y-148320000D01*
X97630000Y-149120000D02*
X98330000Y-149120000D01*
X98330000Y-147920000D02*
X97630000Y-147920000D01*
X98330000Y-149120000D02*
X98330000Y-147920000D01*
X99330000Y-148520000D02*
X102480000Y-148520000D01*
X106330000Y-143670000D02*
X89630000Y-143670000D01*
X106330000Y-166370000D02*
X106330000Y-143670000D01*
%TO.C,R15*%
X111530000Y-199510000D02*
X112300000Y-199510000D01*
X112300000Y-198140000D02*
X112300000Y-200880000D01*
X112300000Y-200880000D02*
X118840000Y-200880000D01*
X118840000Y-198140000D02*
X112300000Y-198140000D01*
X118840000Y-200880000D02*
X118840000Y-198140000D01*
X119610000Y-199510000D02*
X118840000Y-199510000D01*
%TO.C,R3*%
X102440000Y-123480000D02*
X103210000Y-123480000D01*
X103210000Y-122110000D02*
X103210000Y-124850000D01*
X103210000Y-124850000D02*
X109750000Y-124850000D01*
X109750000Y-122110000D02*
X103210000Y-122110000D01*
X109750000Y-124850000D02*
X109750000Y-122110000D01*
X110520000Y-123480000D02*
X109750000Y-123480000D01*
%TD*%
M02*
