%TF.GenerationSoftware,KiCad,Pcbnew,9.0.7-9.0.7~ubuntu24.04.1*%
%TF.CreationDate,2026-04-13T16:00:46+05:30*%
%TF.ProjectId,Ow_main_pcb,4f775f6d-6169-46e5-9f70-63622e6b6963,rev?*%
%TF.SameCoordinates,Original*%
%TF.FileFunction,Soldermask,Top*%
%TF.FilePolarity,Negative*%
%FSLAX46Y46*%
G04 Gerber Fmt 4.6, Leading zero omitted, Abs format (unit mm)*
G04 Created by KiCad (PCBNEW 9.0.7-9.0.7~ubuntu24.04.1) date 2026-04-13 16:00:46*
%MOMM*%
%LPD*%
G01*
G04 APERTURE LIST*
G04 Aperture macros list*
%AMRoundRect*
0 Rectangle with rounded corners*
0 $1 Rounding radius*
0 $2 $3 $4 $5 $6 $7 $8 $9 X,Y pos of 4 corners*
0 Add a 4 corners polygon primitive as box body*
4,1,4,$2,$3,$4,$5,$6,$7,$8,$9,$2,$3,0*
0 Add four circle primitives for the rounded corners*
1,1,$1+$1,$2,$3*
1,1,$1+$1,$4,$5*
1,1,$1+$1,$6,$7*
1,1,$1+$1,$8,$9*
0 Add four rect primitives between the rounded corners*
20,1,$1+$1,$2,$3,$4,$5,0*
20,1,$1+$1,$4,$5,$6,$7,0*
20,1,$1+$1,$6,$7,$8,$9,0*
20,1,$1+$1,$8,$9,$2,$3,0*%
G04 Aperture macros list end*
%ADD10RoundRect,0.150000X-0.150000X0.587500X-0.150000X-0.587500X0.150000X-0.587500X0.150000X0.587500X0*%
%ADD11C,5.700000*%
%ADD12C,10.600000*%
%ADD13C,1.600000*%
%ADD14O,1.600000X1.600000*%
%ADD15R,2.500000X2.500000*%
%ADD16C,2.500000*%
%ADD17R,1.800000X1.800000*%
%ADD18C,1.800000*%
%ADD19RoundRect,0.150000X-0.587500X-0.150000X0.587500X-0.150000X0.587500X0.150000X-0.587500X0.150000X0*%
%ADD20RoundRect,0.150000X0.587500X0.150000X-0.587500X0.150000X-0.587500X-0.150000X0.587500X-0.150000X0*%
%ADD21R,2.000000X2.000000*%
%ADD22C,2.000000*%
%ADD23R,2.800000X2.800000*%
%ADD24O,2.800000X2.800000*%
%ADD25RoundRect,0.375000X0.625000X0.375000X-0.625000X0.375000X-0.625000X-0.375000X0.625000X-0.375000X0*%
%ADD26RoundRect,0.500000X0.500000X1.400000X-0.500000X1.400000X-0.500000X-1.400000X0.500000X-1.400000X0*%
%ADD27C,1.900000*%
%ADD28O,2.500000X2.500000*%
%ADD29C,1.400000*%
%ADD30RoundRect,0.770000X0.980000X0.980000X-0.980000X0.980000X-0.980000X-0.980000X0.980000X-0.980000X0*%
%ADD31C,3.500000*%
G04 APERTURE END LIST*
D10*
%TO.C,Q8*%
X125970000Y-179715000D03*
X124070000Y-179715000D03*
X125020000Y-181590000D03*
%TD*%
D11*
%TO.C,H3*%
X269340000Y-196260000D03*
D12*
X269340000Y-196260000D03*
%TD*%
D13*
%TO.C,R7*%
X135190000Y-159370000D03*
D14*
X145350000Y-159370000D03*
%TD*%
D15*
%TO.C,U7*%
X259600000Y-147850000D03*
D16*
X259600000Y-143650000D03*
X265100000Y-147850000D03*
X265100000Y-143650000D03*
%TD*%
D13*
%TO.C,R1*%
X101380000Y-111360000D03*
D14*
X111540000Y-111360000D03*
%TD*%
D17*
%TO.C,D4*%
X116900000Y-184850000D03*
D18*
X114360000Y-184850000D03*
%TD*%
D11*
%TO.C,H1*%
X74340000Y-101260000D03*
D12*
X74340000Y-101260000D03*
%TD*%
D19*
%TO.C,Q5*%
X124460000Y-148780000D03*
X124460000Y-150680000D03*
X126335000Y-149730000D03*
%TD*%
D13*
%TO.C,R18*%
X110440000Y-195550000D03*
D14*
X120600000Y-195550000D03*
%TD*%
D17*
%TO.C,D2*%
X117880000Y-149420000D03*
D18*
X115340000Y-149420000D03*
%TD*%
D13*
%TO.C,D1*%
X125460000Y-153860000D03*
D14*
X125460000Y-164020000D03*
%TD*%
D13*
%TO.C,R8*%
X135170000Y-163360000D03*
D14*
X145330000Y-163360000D03*
%TD*%
D13*
%TO.C,R16*%
X145340000Y-180410000D03*
D14*
X135180000Y-180410000D03*
%TD*%
D13*
%TO.C,R13*%
X135160000Y-167410000D03*
D14*
X145320000Y-167410000D03*
%TD*%
D20*
%TO.C,Q2*%
X98830000Y-124560000D03*
X98830000Y-122660000D03*
X96955000Y-123610000D03*
%TD*%
D13*
%TO.C,R9*%
X120530000Y-160070000D03*
D14*
X110370000Y-160070000D03*
%TD*%
D11*
%TO.C,H4*%
X74340000Y-196260000D03*
D12*
X74340000Y-196260000D03*
%TD*%
D20*
%TO.C,Q6*%
X131835000Y-169770000D03*
X131835000Y-167870000D03*
X129960000Y-168820000D03*
%TD*%
D13*
%TO.C,R6*%
X111580000Y-107350000D03*
D14*
X101420000Y-107350000D03*
%TD*%
D21*
%TO.C,U3*%
X154900000Y-130820000D03*
D22*
X154900000Y-133360000D03*
X154900000Y-135900000D03*
X154900000Y-138440000D03*
X154900000Y-140980000D03*
X154900000Y-143520000D03*
X154900000Y-146060000D03*
X154900000Y-148600000D03*
X154900000Y-151140000D03*
X154900000Y-153680000D03*
X154900000Y-156220000D03*
X154900000Y-158760000D03*
X154900000Y-161300000D03*
X154900000Y-163840000D03*
X154900000Y-166380000D03*
X154900000Y-168920000D03*
X154900000Y-171460000D03*
X154900000Y-174000000D03*
X154900000Y-176540000D03*
X157440000Y-176540000D03*
X157440000Y-174000000D03*
X157440000Y-171460000D03*
X157440000Y-168920000D03*
X157440000Y-166380000D03*
X157440000Y-163840000D03*
X157440000Y-161300000D03*
X157440000Y-158760000D03*
X157440000Y-156220000D03*
X157440000Y-153680000D03*
X157440000Y-151140000D03*
X157440000Y-148600000D03*
X157440000Y-146060000D03*
X157440000Y-143520000D03*
X157440000Y-140980000D03*
X157440000Y-138440000D03*
X157440000Y-135900000D03*
X157440000Y-133360000D03*
X157440000Y-130820000D03*
X215860000Y-130820000D03*
X215860000Y-133360000D03*
X215860000Y-135900000D03*
X215860000Y-138440000D03*
X215860000Y-140980000D03*
X215860000Y-143520000D03*
X215860000Y-146060000D03*
X215860000Y-148600000D03*
X215860000Y-151140000D03*
X215860000Y-153680000D03*
X215860000Y-156220000D03*
X215860000Y-158760000D03*
X215860000Y-161300000D03*
X215860000Y-163840000D03*
X215860000Y-166380000D03*
X215860000Y-168920000D03*
X215860000Y-171460000D03*
X215860000Y-174000000D03*
X215860000Y-176540000D03*
X218400000Y-176540000D03*
X218400000Y-174000000D03*
X218400000Y-171460000D03*
X218400000Y-168920000D03*
X218400000Y-166380000D03*
X218400000Y-163840000D03*
X218400000Y-161300000D03*
X218400000Y-158760000D03*
X218400000Y-156220000D03*
X218400000Y-153680000D03*
X218400000Y-151140000D03*
X218400000Y-148600000D03*
X218400000Y-146060000D03*
X218400000Y-143520000D03*
X218400000Y-140980000D03*
X218400000Y-138440000D03*
X218400000Y-135900000D03*
X218400000Y-133360000D03*
X218400000Y-130820000D03*
%TD*%
D23*
%TO.C,D3*%
X125070000Y-185980000D03*
D24*
X125070000Y-196140000D03*
%TD*%
D13*
%TO.C,R11*%
X120520000Y-164100000D03*
D14*
X110360000Y-164100000D03*
%TD*%
D13*
%TO.C,R12*%
X145330000Y-171380000D03*
D14*
X135170000Y-171380000D03*
%TD*%
D11*
%TO.C,H2*%
X269340000Y-101260000D03*
D12*
X269340000Y-101260000D03*
%TD*%
D21*
%TO.C,U1*%
X228080000Y-148900000D03*
D22*
X230620000Y-148900000D03*
X233160000Y-148900000D03*
X235700000Y-148900000D03*
X238240000Y-148900000D03*
X238240000Y-146360000D03*
X235700000Y-146360000D03*
X233160000Y-146360000D03*
X230620000Y-146360000D03*
X228080000Y-146360000D03*
%TD*%
D13*
%TO.C,R14*%
X145330000Y-176380000D03*
D14*
X135170000Y-176380000D03*
%TD*%
D13*
%TO.C,R2*%
X111510000Y-115380000D03*
D14*
X101350000Y-115380000D03*
%TD*%
D25*
%TO.C,U5*%
X238210000Y-179760000D03*
X238210000Y-177460000D03*
D26*
X231910000Y-177460000D03*
D25*
X238210000Y-175160000D03*
%TD*%
D13*
%TO.C,R10*%
X120660000Y-156020000D03*
D14*
X110500000Y-156020000D03*
%TD*%
D27*
%TO.C,U2*%
X139270000Y-102180000D03*
X136730000Y-102180000D03*
X134190000Y-102180000D03*
X131650000Y-102180000D03*
X131650000Y-142820000D03*
X134190000Y-142820000D03*
X136730000Y-142820000D03*
X139270000Y-142820000D03*
%TD*%
D20*
%TO.C,Q3*%
X98705000Y-108530000D03*
X98705000Y-106630000D03*
X96830000Y-107580000D03*
%TD*%
D15*
%TO.C,U11*%
X83760000Y-130200000D03*
D16*
X83760000Y-134400000D03*
X78260000Y-130200000D03*
X78260000Y-134400000D03*
%TD*%
D15*
%TO.C,K2*%
X97790000Y-181660000D03*
D28*
X91790000Y-183660000D03*
X91790000Y-195860000D03*
X103790000Y-195860000D03*
X103790000Y-183660000D03*
%TD*%
D15*
%TO.C,U9*%
X83770000Y-174100000D03*
D16*
X83770000Y-178300000D03*
X78270000Y-174100000D03*
X78270000Y-178300000D03*
%TD*%
D20*
%TO.C,Q7*%
X131835000Y-179230000D03*
X131835000Y-177330000D03*
X129960000Y-178280000D03*
%TD*%
D21*
%TO.C,C1*%
X248580000Y-176300000D03*
D22*
X253580000Y-176300000D03*
%TD*%
D15*
%TO.C,U10*%
X83760000Y-150300000D03*
D16*
X83760000Y-154500000D03*
X78260000Y-150300000D03*
X78260000Y-154500000D03*
%TD*%
D13*
%TO.C,R4*%
X111540000Y-119360000D03*
D14*
X101380000Y-119360000D03*
%TD*%
D13*
%TO.C,R5*%
X101400000Y-127410000D03*
D14*
X111560000Y-127410000D03*
%TD*%
D15*
%TO.C,U8*%
X260050000Y-127780000D03*
D16*
X260050000Y-123580000D03*
X265550000Y-127780000D03*
X265550000Y-123580000D03*
%TD*%
D19*
%TO.C,Q4*%
X129980000Y-159730000D03*
X129980000Y-161630000D03*
X131855000Y-160680000D03*
%TD*%
D20*
%TO.C,Q1*%
X98770000Y-116560000D03*
X98770000Y-114660000D03*
X96895000Y-115610000D03*
%TD*%
D29*
%TO.C,U4*%
X252770000Y-202610000D03*
X241770000Y-202610000D03*
D30*
X244770000Y-192610000D03*
D31*
X249770000Y-192610000D03*
%TD*%
D13*
%TO.C,R17*%
X110410000Y-191540000D03*
D14*
X120570000Y-191540000D03*
%TD*%
D29*
%TO.C,U6*%
X232700000Y-202610000D03*
X221700000Y-202610000D03*
D30*
X224700000Y-192610000D03*
D31*
X229700000Y-192610000D03*
%TD*%
D15*
%TO.C,K1*%
X97980000Y-146320000D03*
D28*
X91980000Y-148320000D03*
X91980000Y-160520000D03*
X103980000Y-160520000D03*
X103980000Y-148320000D03*
%TD*%
D13*
%TO.C,R15*%
X110490000Y-199510000D03*
D14*
X120650000Y-199510000D03*
%TD*%
D13*
%TO.C,R3*%
X101400000Y-123480000D03*
D14*
X111560000Y-123480000D03*
%TD*%
M02*
