M48
; DRILL file {KiCad 9.0.7-9.0.7~ubuntu24.04.1} date 2026-04-13T16:00:20+0530
; FORMAT={-:-/ absolute / metric / decimal}
; #@! TF.CreationDate,2026-04-13T16:00:20+05:30
; #@! TF.GenerationSoftware,Kicad,Pcbnew,9.0.7-9.0.7~ubuntu24.04.1
; #@! TF.FileFunction,Plated,1,2,PTH
FMAT,2
METRIC
; #@! TA.AperFunction,Plated,PTH,ViaDrill
T1C0.300
; #@! TA.AperFunction,Plated,PTH,ComponentDrill
T2C0.800
; #@! TA.AperFunction,Plated,PTH,ComponentDrill
T3C0.900
; #@! TA.AperFunction,Plated,PTH,ComponentDrill
T4C0.950
; #@! TA.AperFunction,Plated,PTH,ComponentDrill
T5C1.000
; #@! TA.AperFunction,Plated,PTH,ComponentDrill
T6C1.300
; #@! TA.AperFunction,Plated,PTH,ComponentDrill
T7C1.400
; #@! TA.AperFunction,Plated,PTH,ComponentDrill
T8C1.800
; #@! TA.AperFunction,Plated,PTH,ComponentDrill
T9C1.900
; #@! TA.AperFunction,Plated,PTH,ComponentDrill
T10C5.300
%
G90
G05
T1
X80.63Y-119.164
X86.612Y-145.781
X98.576Y-152.732
X100.522Y-106.378
X102.465Y-116.808
X116.999Y-147.84
X122.6Y-190.85
X125.495Y-130.994
X128.048Y-180.24
X137.459Y-114.038
X137.459Y-122.121
X137.459Y-177.682
X143.233Y-166.157
X146.433Y-128.99
X152.415Y-113.249
X153.81Y-126.18
X155.85Y-123.67
X158.397Y-127.946
X161.387Y-125.079
X162.185Y-150.629
X164.379Y-180.051
X203.261Y-154.654
X206.252Y-177.537
X208.07Y-123.73
X209.27Y-126.01
X210.32Y-196.34
X211.03Y-126.31
X211.976Y-157.611
X212.744Y-156.822
X220.17Y-176.73
X222.81Y-154.654
X223.401Y-144.607
X224.198Y-142.094
X227.189Y-175.356
X227.393Y-152.808
X229.302Y-177.46
X230.62Y-181.271
X233.171Y-169.441
X256.46Y-138.77
T2
X101.35Y-115.38
X101.38Y-111.36
X101.38Y-119.36
X101.4Y-123.48
X101.4Y-127.41
X101.42Y-107.35
X110.36Y-164.1
X110.37Y-160.07
X110.41Y-191.54
X110.44Y-195.55
X110.49Y-199.51
X110.5Y-156.02
X111.51Y-115.38
X111.54Y-111.36
X111.54Y-119.36
X111.56Y-123.48
X111.56Y-127.41
X111.58Y-107.35
X120.52Y-164.1
X120.53Y-160.07
X120.57Y-191.54
X120.6Y-195.55
X120.65Y-199.51
X120.66Y-156.02
X125.46Y-153.86
X125.46Y-164.02
X135.16Y-167.41
X135.17Y-163.36
X135.17Y-171.38
X135.17Y-176.38
X135.18Y-180.41
X135.19Y-159.37
X145.32Y-167.41
X145.33Y-163.36
X145.33Y-171.38
X145.33Y-176.38
X145.34Y-180.41
X145.35Y-159.37
T3
X114.36Y-184.85
X115.34Y-149.42
X116.9Y-184.85
X117.88Y-149.42
T4
X131.65Y-102.18
X131.65Y-142.82
X134.19Y-102.18
X134.19Y-142.82
X136.73Y-102.18
X136.73Y-142.82
X139.27Y-102.18
X139.27Y-142.82
T5
X154.9Y-130.82
X154.9Y-133.36
X154.9Y-135.9
X154.9Y-138.44
X154.9Y-140.98
X154.9Y-143.52
X154.9Y-146.06
X154.9Y-148.6
X154.9Y-151.14
X154.9Y-153.68
X154.9Y-156.22
X154.9Y-158.76
X154.9Y-161.3
X154.9Y-163.84
X154.9Y-166.38
X154.9Y-168.92
X154.9Y-171.46
X154.9Y-174.0
X154.9Y-176.54
X157.44Y-130.82
X157.44Y-133.36
X157.44Y-135.9
X157.44Y-138.44
X157.44Y-140.98
X157.44Y-143.52
X157.44Y-146.06
X157.44Y-148.6
X157.44Y-151.14
X157.44Y-153.68
X157.44Y-156.22
X157.44Y-158.76
X157.44Y-161.3
X157.44Y-163.84
X157.44Y-166.38
X157.44Y-168.92
X157.44Y-171.46
X157.44Y-174.0
X157.44Y-176.54
X215.86Y-130.82
X215.86Y-133.36
X215.86Y-135.9
X215.86Y-138.44
X215.86Y-140.98
X215.86Y-143.52
X215.86Y-146.06
X215.86Y-148.6
X215.86Y-151.14
X215.86Y-153.68
X215.86Y-156.22
X215.86Y-158.76
X215.86Y-161.3
X215.86Y-163.84
X215.86Y-166.38
X215.86Y-168.92
X215.86Y-171.46
X215.86Y-174.0
X215.86Y-176.54
X218.4Y-130.82
X218.4Y-133.36
X218.4Y-135.9
X218.4Y-138.44
X218.4Y-140.98
X218.4Y-143.52
X218.4Y-146.06
X218.4Y-148.6
X218.4Y-151.14
X218.4Y-153.68
X218.4Y-156.22
X218.4Y-158.76
X218.4Y-161.3
X218.4Y-163.84
X218.4Y-166.38
X218.4Y-168.92
X218.4Y-171.46
X218.4Y-174.0
X218.4Y-176.54
X221.7Y-202.61
X228.08Y-146.36
X228.08Y-148.9
X230.62Y-146.36
X230.62Y-148.9
X232.7Y-202.61
X233.16Y-146.36
X233.16Y-148.9
X235.7Y-146.36
X235.7Y-148.9
X238.24Y-146.36
X238.24Y-148.9
X241.77Y-202.61
X248.58Y-176.3
X252.77Y-202.61
X253.58Y-176.3
T6
X91.79Y-183.66
X91.79Y-195.86
X91.98Y-148.32
X91.98Y-160.52
X97.79Y-181.66
X97.98Y-146.32
X103.79Y-183.66
X103.79Y-195.86
X103.98Y-148.32
X103.98Y-160.52
T7
X125.07Y-185.98
X125.07Y-196.14
T8
X78.26Y-130.2
X78.26Y-134.4
X78.26Y-150.3
X78.26Y-154.5
X78.27Y-174.1
X78.27Y-178.3
X83.76Y-130.2
X83.76Y-134.4
X83.76Y-150.3
X83.76Y-154.5
X83.77Y-174.1
X83.77Y-178.3
X259.6Y-143.65
X259.6Y-147.85
X260.05Y-123.58
X260.05Y-127.78
X265.1Y-143.65
X265.1Y-147.85
X265.55Y-123.58
X265.55Y-127.78
T9
X224.7Y-192.61
X229.7Y-192.61
X244.77Y-192.61
X249.77Y-192.61
T10
X74.34Y-101.26
X74.34Y-196.26
X269.34Y-101.26
X269.34Y-196.26
M30
